solid csgrs-logfting_segments-48
  facet normal -0.000000 0.000000 1.000000
    outer loop
      vertex -1.198500 0.998750 0.000000
      vertex -1.198500 0.799000 0.000000
      vertex -0.799000 1.198500 0.000000
    endloop
  endfacet
  facet normal -0.000000 0.000000 1.000000
    outer loop
      vertex -0.998750 -1.198500 0.000000
      vertex -0.799000 -1.198500 0.000000
      vertex -1.198500 -0.799000 0.000000
    endloop
  endfacet
  facet normal -0.000000 0.000000 1.000000
    outer loop
      vertex -0.799000 -1.198500 0.000000
      vertex -0.599250 -1.198500 0.000000
      vertex -1.198500 -0.799000 0.000000
    endloop
  endfacet
  facet normal -0.000000 0.000000 1.000000
    outer loop
      vertex -0.599250 -1.198500 0.000000
      vertex -0.399500 -1.198500 0.000000
      vertex -1.198500 -0.599250 0.000000
    endloop
  endfacet
  facet normal -0.000000 0.000000 1.000000
    outer loop
      vertex -0.399500 -1.198500 0.000000
      vertex -0.199750 -1.198500 0.000000
      vertex -1.198500 -0.199750 0.000000
    endloop
  endfacet
  facet normal -0.000000 0.000000 1.000000
    outer loop
      vertex -0.199750 -1.198500 0.000000
      vertex 0.000000 -1.198500 0.000000
      vertex -1.198500 0.000000 0.000000
    endloop
  endfacet
  facet normal -0.000000 0.000000 1.000000
    outer loop
      vertex 0.000000 -1.198500 0.000000
      vertex 0.199750 -1.198500 0.000000
      vertex 1.198500 -0.199750 0.000000
    endloop
  endfacet
  facet normal -0.000000 0.000000 1.000000
    outer loop
      vertex 0.199750 -1.198500 0.000000
      vertex 0.399500 -1.198500 0.000000
      vertex 1.198500 -0.399500 0.000000
    endloop
  endfacet
  facet normal -0.000000 0.000000 1.000000
    outer loop
      vertex 0.399500 -1.198500 0.000000
      vertex 0.599250 -1.198500 0.000000
      vertex 1.198500 -0.399500 0.000000
    endloop
  endfacet
  facet normal -0.000000 0.000000 1.000000
    outer loop
      vertex 0.599250 -1.198500 0.000000
      vertex 0.799000 -1.198500 0.000000
      vertex 1.198500 -0.599250 0.000000
    endloop
  endfacet
  facet normal -0.000000 0.000000 1.000000
    outer loop
      vertex 0.799000 -1.198500 0.000000
      vertex 0.998750 -1.198500 0.000000
      vertex 1.198500 -0.998750 0.000000
    endloop
  endfacet
  facet normal -0.000000 0.000000 1.000000
    outer loop
      vertex 0.998750 -1.198500 0.000000
      vertex 1.198500 -1.198500 0.000000
      vertex 1.198500 -0.998750 0.000000
    endloop
  endfacet
  facet normal -0.000000 0.000000 1.000000
    outer loop
      vertex 1.198500 -0.998750 0.000000
      vertex 1.198500 -0.799000 0.000000
      vertex 0.799000 -1.198500 0.000000
    endloop
  endfacet
  facet normal -0.000000 0.000000 1.000000
    outer loop
      vertex 1.198500 -0.799000 0.000000
      vertex 1.198500 -0.599250 0.000000
      vertex 0.799000 -1.198500 0.000000
    endloop
  endfacet
  facet normal -0.000000 0.000000 1.000000
    outer loop
      vertex 1.198500 -0.599250 0.000000
      vertex 1.198500 -0.399500 0.000000
      vertex 0.599250 -1.198500 0.000000
    endloop
  endfacet
  facet normal -0.000000 0.000000 1.000000
    outer loop
      vertex 1.198500 -0.399500 0.000000
      vertex 1.198500 -0.199750 0.000000
      vertex 0.199750 -1.198500 0.000000
    endloop
  endfacet
  facet normal -0.000000 0.000000 1.000000
    outer loop
      vertex 1.198500 -0.199750 0.000000
      vertex 1.198500 0.000000 0.000000
      vertex 0.000000 -1.198500 0.000000
    endloop
  endfacet
  facet normal -0.000000 0.000000 1.000000
    outer loop
      vertex 0.000000 -1.198500 0.000000
      vertex 1.198500 0.000000 0.000000
      vertex 0.000000 1.198500 0.000000
    endloop
  endfacet
  facet normal -0.000000 0.000000 1.000000
    outer loop
      vertex 1.198500 0.000000 0.000000
      vertex 1.198500 0.199750 0.000000
      vertex 0.199750 1.198500 0.000000
    endloop
  endfacet
  facet normal -0.000000 0.000000 1.000000
    outer loop
      vertex 1.198500 0.199750 0.000000
      vertex 1.198500 0.399500 0.000000
      vertex 0.399500 1.198500 0.000000
    endloop
  endfacet
  facet normal -0.000000 0.000000 1.000000
    outer loop
      vertex 1.198500 0.399500 0.000000
      vertex 1.198500 0.599250 0.000000
      vertex 0.599250 1.198500 0.000000
    endloop
  endfacet
  facet normal -0.000000 0.000000 1.000000
    outer loop
      vertex 1.198500 0.599250 0.000000
      vertex 1.198500 0.799000 0.000000
      vertex 0.799000 1.198500 0.000000
    endloop
  endfacet
  facet normal -0.000000 0.000000 1.000000
    outer loop
      vertex 1.198500 0.998750 0.000000
      vertex 0.998750 1.198500 0.000000
      vertex 1.198500 0.799000 0.000000
    endloop
  endfacet
  facet normal -0.000000 0.000000 1.000000
    outer loop
      vertex 1.198500 1.198500 0.000000
      vertex 0.998750 1.198500 0.000000
      vertex 1.198500 0.998750 0.000000
    endloop
  endfacet
  facet normal -0.000000 0.000000 1.000000
    outer loop
      vertex 0.998750 1.198500 0.000000
      vertex 0.799000 1.198500 0.000000
      vertex 1.198500 0.799000 0.000000
    endloop
  endfacet
  facet normal -0.000000 0.000000 1.000000
    outer loop
      vertex 0.799000 1.198500 0.000000
      vertex 0.599250 1.198500 0.000000
      vertex 1.198500 0.599250 0.000000
    endloop
  endfacet
  facet normal -0.000000 0.000000 1.000000
    outer loop
      vertex 0.599250 1.198500 0.000000
      vertex 0.399500 1.198500 0.000000
      vertex 1.198500 0.399500 0.000000
    endloop
  endfacet
  facet normal -0.000000 0.000000 1.000000
    outer loop
      vertex 0.399500 1.198500 0.000000
      vertex 0.199750 1.198500 0.000000
      vertex 1.198500 0.199750 0.000000
    endloop
  endfacet
  facet normal -0.000000 0.000000 1.000000
    outer loop
      vertex 0.199750 1.198500 0.000000
      vertex 0.000000 1.198500 0.000000
      vertex 1.198500 0.000000 0.000000
    endloop
  endfacet
  facet normal -0.000000 0.000000 1.000000
    outer loop
      vertex 0.000000 -1.198500 0.000000
      vertex 0.000000 1.198500 0.000000
      vertex -1.198500 0.000000 0.000000
    endloop
  endfacet
  facet normal -0.000000 0.000000 1.000000
    outer loop
      vertex 0.000000 1.198500 0.000000
      vertex -0.199750 1.198500 0.000000
      vertex -1.198500 0.199750 0.000000
    endloop
  endfacet
  facet normal -0.000000 0.000000 1.000000
    outer loop
      vertex -0.199750 1.198500 0.000000
      vertex -0.399500 1.198500 0.000000
      vertex -1.198500 0.399500 0.000000
    endloop
  endfacet
  facet normal -0.000000 0.000000 1.000000
    outer loop
      vertex -0.399500 1.198500 0.000000
      vertex -0.599250 1.198500 0.000000
      vertex -1.198500 0.599250 0.000000
    endloop
  endfacet
  facet normal -0.000000 0.000000 1.000000
    outer loop
      vertex -0.599250 1.198500 0.000000
      vertex -0.799000 1.198500 0.000000
      vertex -1.198500 0.799000 0.000000
    endloop
  endfacet
  facet normal -0.000000 0.000000 1.000000
    outer loop
      vertex -0.998750 1.198500 0.000000
      vertex -1.198500 1.198500 0.000000
      vertex -1.198500 0.998750 0.000000
    endloop
  endfacet
  facet normal -0.000000 0.000000 1.000000
    outer loop
      vertex -0.998750 1.198500 0.000000
      vertex -1.198500 0.998750 0.000000
      vertex -0.799000 1.198500 0.000000
    endloop
  endfacet
  facet normal -0.000000 0.000000 1.000000
    outer loop
      vertex -1.198500 0.799000 0.000000
      vertex -1.198500 0.599250 0.000000
      vertex -0.599250 1.198500 0.000000
    endloop
  endfacet
  facet normal -0.000000 0.000000 1.000000
    outer loop
      vertex -1.198500 0.599250 0.000000
      vertex -1.198500 0.399500 0.000000
      vertex -0.399500 1.198500 0.000000
    endloop
  endfacet
  facet normal -0.000000 0.000000 1.000000
    outer loop
      vertex -1.198500 0.399500 0.000000
      vertex -1.198500 0.199750 0.000000
      vertex -0.199750 1.198500 0.000000
    endloop
  endfacet
  facet normal -0.000000 0.000000 1.000000
    outer loop
      vertex -1.198500 0.199750 0.000000
      vertex -1.198500 0.000000 0.000000
      vertex 0.000000 1.198500 0.000000
    endloop
  endfacet
  facet normal -0.000000 0.000000 1.000000
    outer loop
      vertex -1.198500 0.000000 0.000000
      vertex -1.198500 -0.199750 0.000000
      vertex -0.199750 -1.198500 0.000000
    endloop
  endfacet
  facet normal -0.000000 0.000000 1.000000
    outer loop
      vertex -1.198500 -0.199750 0.000000
      vertex -1.198500 -0.399500 0.000000
      vertex -0.399500 -1.198500 0.000000
    endloop
  endfacet
  facet normal -0.000000 0.000000 1.000000
    outer loop
      vertex -1.198500 -0.399500 0.000000
      vertex -1.198500 -0.599250 0.000000
      vertex -0.399500 -1.198500 0.000000
    endloop
  endfacet
  facet normal -0.000000 0.000000 1.000000
    outer loop
      vertex -1.198500 -0.599250 0.000000
      vertex -1.198500 -0.799000 0.000000
      vertex -0.599250 -1.198500 0.000000
    endloop
  endfacet
  facet normal -0.000000 0.000000 1.000000
    outer loop
      vertex -0.998750 -1.198500 0.000000
      vertex -1.198500 -0.799000 0.000000
      vertex -1.198500 -0.998750 0.000000
    endloop
  endfacet
  facet normal -0.000000 0.000000 1.000000
    outer loop
      vertex -0.998750 -1.198500 0.000000
      vertex -1.198500 -0.998750 0.000000
      vertex -1.198500 -1.198500 0.000000
    endloop
  endfacet
  facet normal 0.000000 0.000000 1.000000
    outer loop
      vertex -1.000000 -1.732051 20.000000
      vertex -1.414214 -1.414214 20.000000
      vertex -1.217523 -1.586707 20.000000
    endloop
  endfacet
  facet normal 0.000000 0.000000 1.000000
    outer loop
      vertex -1.414214 -1.414214 20.000000
      vertex -1.000000 -1.732051 20.000000
      vertex -1.847759 -0.765367 20.000000
    endloop
  endfacet
  facet normal 0.000000 0.000000 1.000000
    outer loop
      vertex -1.000000 -1.732051 20.000000
      vertex -0.765367 -1.847759 20.000000
      vertex 0.261052 -1.982890 20.000000
    endloop
  endfacet
  facet normal 0.000000 0.000000 1.000000
    outer loop
      vertex -0.517638 -1.931852 20.000000
      vertex -0.261052 -1.982890 20.000000
      vertex -0.765367 -1.847759 20.000000
    endloop
  endfacet
  facet normal 0.000000 0.000000 1.000000
    outer loop
      vertex -0.261052 -1.982890 20.000000
      vertex 0.000000 -2.000000 20.000000
      vertex -0.765367 -1.847759 20.000000
    endloop
  endfacet
  facet normal 0.000000 0.000000 1.000000
    outer loop
      vertex 0.000000 -2.000000 20.000000
      vertex 0.261052 -1.982890 20.000000
      vertex -0.765367 -1.847759 20.000000
    endloop
  endfacet
  facet normal 0.000000 0.000000 1.000000
    outer loop
      vertex -1.000000 -1.732051 20.000000
      vertex 0.261052 -1.982890 20.000000
      vertex 1.847759 -0.765367 20.000000
    endloop
  endfacet
  facet normal 0.000000 0.000000 1.000000
    outer loop
      vertex 0.517638 -1.931852 20.000000
      vertex 0.765367 -1.847759 20.000000
      vertex 0.261052 -1.982890 20.000000
    endloop
  endfacet
  facet normal 0.000000 0.000000 1.000000
    outer loop
      vertex 0.765367 -1.847759 20.000000
      vertex 1.000000 -1.732051 20.000000
      vertex 0.261052 -1.982890 20.000000
    endloop
  endfacet
  facet normal 0.000000 0.000000 1.000000
    outer loop
      vertex 1.000000 -1.732051 20.000000
      vertex 1.414214 -1.414214 20.000000
      vertex 0.261052 -1.982890 20.000000
    endloop
  endfacet
  facet normal 0.000000 0.000000 1.000000
    outer loop
      vertex 1.217523 -1.586707 20.000000
      vertex 1.414214 -1.414214 20.000000
      vertex 1.000000 -1.732051 20.000000
    endloop
  endfacet
  facet normal 0.000000 0.000000 1.000000
    outer loop
      vertex 1.414214 -1.414214 20.000000
      vertex 1.847759 -0.765367 20.000000
      vertex 0.261052 -1.982890 20.000000
    endloop
  endfacet
  facet normal 0.000000 0.000000 1.000000
    outer loop
      vertex 1.586707 -1.217523 20.000000
      vertex 1.732051 -1.000000 20.000000
      vertex 1.414214 -1.414214 20.000000
    endloop
  endfacet
  facet normal 0.000000 0.000000 1.000000
    outer loop
      vertex 1.732051 -1.000000 20.000000
      vertex 1.847759 -0.765367 20.000000
      vertex 1.414214 -1.414214 20.000000
    endloop
  endfacet
  facet normal 0.000000 0.000000 1.000000
    outer loop
      vertex -1.000000 -1.732051 20.000000
      vertex 1.847759 -0.765367 20.000000
      vertex 1.414214 1.414214 20.000000
    endloop
  endfacet
  facet normal 0.000000 0.000000 1.000000
    outer loop
      vertex 1.847759 -0.765367 20.000000
      vertex 1.931852 -0.517638 20.000000
      vertex 2.000000 0.000000 20.000000
    endloop
  endfacet
  facet normal 0.000000 0.000000 1.000000
    outer loop
      vertex 1.982890 -0.261052 20.000000
      vertex 2.000000 0.000000 20.000000
      vertex 1.931852 -0.517638 20.000000
    endloop
  endfacet
  facet normal 0.000000 0.000000 1.000000
    outer loop
      vertex 2.000000 0.000000 20.000000
      vertex 1.931852 0.517638 20.000000
      vertex 1.847759 -0.765367 20.000000
    endloop
  endfacet
  facet normal 0.000000 0.000000 1.000000
    outer loop
      vertex 1.982890 0.261052 20.000000
      vertex 1.931852 0.517638 20.000000
      vertex 2.000000 0.000000 20.000000
    endloop
  endfacet
  facet normal 0.000000 0.000000 1.000000
    outer loop
      vertex 1.847759 -0.765367 20.000000
      vertex 1.931852 0.517638 20.000000
      vertex 1.414214 1.414214 20.000000
    endloop
  endfacet
  facet normal 0.000000 0.000000 1.000000
    outer loop
      vertex 1.931852 0.517638 20.000000
      vertex 1.847759 0.765367 20.000000
      vertex 1.414214 1.414214 20.000000
    endloop
  endfacet
  facet normal 0.000000 0.000000 1.000000
    outer loop
      vertex 1.732051 1.000000 20.000000
      vertex 1.586707 1.217523 20.000000
      vertex 1.847759 0.765367 20.000000
    endloop
  endfacet
  facet normal 0.000000 0.000000 1.000000
    outer loop
      vertex 1.586707 1.217523 20.000000
      vertex 1.414214 1.414214 20.000000
      vertex 1.847759 0.765367 20.000000
    endloop
  endfacet
  facet normal 0.000000 0.000000 1.000000
    outer loop
      vertex 1.414214 1.414214 20.000000
      vertex 0.517638 1.931852 20.000000
      vertex -1.000000 -1.732051 20.000000
    endloop
  endfacet
  facet normal 0.000000 0.000000 1.000000
    outer loop
      vertex 1.414214 1.414214 20.000000
      vertex 1.217523 1.586707 20.000000
      vertex 0.517638 1.931852 20.000000
    endloop
  endfacet
  facet normal 0.000000 0.000000 1.000000
    outer loop
      vertex 1.000000 1.732051 20.000000
      vertex 0.517638 1.931852 20.000000
      vertex 1.217523 1.586707 20.000000
    endloop
  endfacet
  facet normal 0.000000 0.000000 1.000000
    outer loop
      vertex 0.765367 1.847759 20.000000
      vertex 0.517638 1.931852 20.000000
      vertex 1.000000 1.732051 20.000000
    endloop
  endfacet
  facet normal 0.000000 0.000000 1.000000
    outer loop
      vertex -1.000000 -1.732051 20.000000
      vertex 0.517638 1.931852 20.000000
      vertex -1.982890 0.261052 20.000000
    endloop
  endfacet
  facet normal 0.000000 0.000000 1.000000
    outer loop
      vertex 0.261052 1.982890 20.000000
      vertex 0.000000 2.000000 20.000000
      vertex 0.517638 1.931852 20.000000
    endloop
  endfacet
  facet normal 0.000000 0.000000 1.000000
    outer loop
      vertex 0.517638 1.931852 20.000000
      vertex 0.000000 2.000000 20.000000
      vertex -1.982890 0.261052 20.000000
    endloop
  endfacet
  facet normal 0.000000 0.000000 1.000000
    outer loop
      vertex 0.000000 2.000000 20.000000
      vertex -0.261052 1.982890 20.000000
      vertex -1.000000 1.732051 20.000000
    endloop
  endfacet
  facet normal 0.000000 0.000000 1.000000
    outer loop
      vertex -0.517638 1.931852 20.000000
      vertex -0.765367 1.847759 20.000000
      vertex -0.261052 1.982890 20.000000
    endloop
  endfacet
  facet normal 0.000000 0.000000 1.000000
    outer loop
      vertex -0.765367 1.847759 20.000000
      vertex -1.000000 1.732051 20.000000
      vertex -0.261052 1.982890 20.000000
    endloop
  endfacet
  facet normal 0.000000 0.000000 1.000000
    outer loop
      vertex 0.000000 2.000000 20.000000
      vertex -1.000000 1.732051 20.000000
      vertex -1.586707 1.217523 20.000000
    endloop
  endfacet
  facet normal 0.000000 0.000000 1.000000
    outer loop
      vertex -1.217523 1.586707 20.000000
      vertex -1.414214 1.414214 20.000000
      vertex -1.000000 1.732051 20.000000
    endloop
  endfacet
  facet normal 0.000000 0.000000 1.000000
    outer loop
      vertex -1.414214 1.414214 20.000000
      vertex -1.586707 1.217523 20.000000
      vertex -1.000000 1.732051 20.000000
    endloop
  endfacet
  facet normal 0.000000 0.000000 1.000000
    outer loop
      vertex 0.000000 2.000000 20.000000
      vertex -1.586707 1.217523 20.000000
      vertex -1.982890 0.261052 20.000000
    endloop
  endfacet
  facet normal 0.000000 0.000000 1.000000
    outer loop
      vertex -1.732051 1.000000 20.000000
      vertex -1.847759 0.765367 20.000000
      vertex -1.586707 1.217523 20.000000
    endloop
  endfacet
  facet normal 0.000000 0.000000 1.000000
    outer loop
      vertex -1.847759 0.765367 20.000000
      vertex -1.931852 0.517638 20.000000
      vertex -1.586707 1.217523 20.000000
    endloop
  endfacet
  facet normal 0.000000 0.000000 1.000000
    outer loop
      vertex -1.931852 0.517638 20.000000
      vertex -1.982890 0.261052 20.000000
      vertex -1.586707 1.217523 20.000000
    endloop
  endfacet
  facet normal 0.000000 0.000000 1.000000
    outer loop
      vertex -1.982890 0.261052 20.000000
      vertex -1.847759 -0.765367 20.000000
      vertex -1.000000 -1.732051 20.000000
    endloop
  endfacet
  facet normal 0.000000 0.000000 1.000000
    outer loop
      vertex -1.982890 0.261052 20.000000
      vertex -2.000000 0.000000 20.000000
      vertex -1.847759 -0.765367 20.000000
    endloop
  endfacet
  facet normal 0.000000 0.000000 1.000000
    outer loop
      vertex -1.982890 -0.261052 20.000000
      vertex -1.931852 -0.517638 20.000000
      vertex -2.000000 0.000000 20.000000
    endloop
  endfacet
  facet normal 0.000000 0.000000 1.000000
    outer loop
      vertex -1.931852 -0.517638 20.000000
      vertex -1.847759 -0.765367 20.000000
      vertex -2.000000 0.000000 20.000000
    endloop
  endfacet
  facet normal 0.000000 0.000000 1.000000
    outer loop
      vertex -1.414214 -1.414214 20.000000
      vertex -1.847759 -0.765367 20.000000
      vertex -1.586707 -1.217523 20.000000
    endloop
  endfacet
  facet normal 0.000000 0.000000 1.000000
    outer loop
      vertex -1.732051 -1.000000 20.000000
      vertex -1.586707 -1.217523 20.000000
      vertex -1.847759 -0.765367 20.000000
    endloop
  endfacet
  facet normal -0.659189 -0.751661 -0.021801
    outer loop
      vertex -1.304320 -1.685680 19.997129
      vertex -1.198500 -1.198500 0.000000
      vertex -1.085547 -1.297473 -0.002871
    endloop
  endfacet
  facet normal -0.659189 -0.751661 -0.021801
    outer loop
      vertex -1.501011 -1.513187 19.997129
      vertex -1.198500 -1.198500 0.000000
      vertex -1.304320 -1.685680 19.997129
    endloop
  endfacet
  facet normal -0.555356 -0.831149 -0.027754
    outer loop
      vertex -1.061607 -1.824252 19.996921
      vertex -0.998750 -1.198500 0.000000
      vertex -0.860607 -1.290701 -0.003079
    endloop
  endfacet
  facet normal -0.555356 -0.831149 -0.027754
    outer loop
      vertex -1.279130 -1.678908 19.996921
      vertex -0.998750 -1.198500 0.000000
      vertex -1.061607 -1.824252 19.996921
    endloop
  endfacet
  facet normal -0.442051 -0.896391 -0.032771
    outer loop
      vertex -0.804400 -1.926910 19.997106
      vertex -0.799000 -1.198500 0.000000
      vertex -0.638283 -1.277651 -0.002894
    endloop
  endfacet
  facet normal -0.442051 -0.896391 -0.032771
    outer loop
      vertex -1.039033 -1.811202 19.997106
      vertex -0.799000 -1.198500 0.000000
      vertex -0.804400 -1.926910 19.997106
    endloop
  endfacet
  facet normal -0.321224 -0.946296 -0.036596
    outer loop
      vertex -0.538249 -1.992570 19.997652
      vertex -0.599250 -1.198500 0.000000
      vertex -0.420111 -1.259219 -0.002348
    endloop
  endfacet
  facet normal -0.321224 -0.946296 -0.036596
    outer loop
      vertex -0.785978 -1.908478 19.997652
      vertex -0.599250 -1.198500 0.000000
      vertex -0.538249 -1.992570 19.997652
    endloop
  endfacet
  facet normal -0.194942 -0.980038 -0.039034
    outer loop
      vertex -0.268643 -2.021052 19.998480
      vertex -0.399500 -1.198500 0.000000
      vertex -0.207341 -1.236662 -0.001520
    endloop
  endfacet
  facet normal -0.194942 -0.980038 -0.039034
    outer loop
      vertex -0.525229 -1.970014 19.998480
      vertex -0.399500 -1.198500 0.000000
      vertex -0.268643 -2.021052 19.998480
    endloop
  endfacet
  facet normal -0.065351 -0.997062 -0.039957
    outer loop
      vertex -0.000853 -2.013015 19.999478
      vertex -0.199750 -1.198500 0.000000
      vertex -0.000853 -1.211515 -0.000522
    endloop
  endfacet
  facet normal -0.065351 -0.997062 -0.039957
    outer loop
      vertex -0.261905 -1.995905 19.999478
      vertex -0.199750 -1.198500 0.000000
      vertex -0.000853 -2.013015 19.999478
    endloop
  endfacet
  facet normal 0.065351 -0.997062 -0.039957
    outer loop
      vertex 0.000000 -1.198500 0.000000
      vertex 0.198897 -1.185485 0.000522
      vertex 0.000000 -2.000000 20.000000
    endloop
  endfacet
  facet normal 0.065351 -0.997062 -0.039957
    outer loop
      vertex 0.261052 -1.982890 20.000000
      vertex 0.000000 -2.000000 20.000000
      vertex 0.198897 -1.185485 0.000522
    endloop
  endfacet
  facet normal 0.194942 -0.980038 -0.039034
    outer loop
      vertex 0.199750 -1.198500 0.000000
      vertex 0.391909 -1.160338 0.001520
      vertex 0.261052 -1.982890 20.000000
    endloop
  endfacet
  facet normal 0.194942 -0.980038 -0.039034
    outer loop
      vertex 0.517638 -1.931852 20.000000
      vertex 0.261052 -1.982890 20.000000
      vertex 0.391909 -1.160338 0.001520
    endloop
  endfacet
  facet normal 0.321224 -0.946296 -0.036596
    outer loop
      vertex 0.399500 -1.198500 0.000000
      vertex 0.578639 -1.137781 0.002348
      vertex 0.517638 -1.931852 20.000000
    endloop
  endfacet
  facet normal 0.321224 -0.946296 -0.036596
    outer loop
      vertex 0.765367 -1.847759 20.000000
      vertex 0.517638 -1.931852 20.000000
      vertex 0.578639 -1.137781 0.002348
    endloop
  endfacet
  facet normal 0.442051 -0.896391 -0.032771
    outer loop
      vertex 0.599250 -1.198500 0.000000
      vertex 0.759967 -1.119349 0.002894
      vertex 0.765367 -1.847759 20.000000
    endloop
  endfacet
  facet normal 0.442051 -0.896391 -0.032771
    outer loop
      vertex 1.000000 -1.732051 20.000000
      vertex 0.765367 -1.847759 20.000000
      vertex 0.759967 -1.119349 0.002894
    endloop
  endfacet
  facet normal 0.555356 -0.831149 -0.027754
    outer loop
      vertex 0.799000 -1.198500 0.000000
      vertex 0.937143 -1.106299 0.003079
      vertex 1.000000 -1.732051 20.000000
    endloop
  endfacet
  facet normal 0.555356 -0.831149 -0.027754
    outer loop
      vertex 1.217523 -1.586707 20.000000
      vertex 1.000000 -1.732051 20.000000
      vertex 0.937143 -1.106299 0.003079
    endloop
  endfacet
  facet normal 0.659189 -0.751661 -0.021801
    outer loop
      vertex 0.998750 -1.198500 0.000000
      vertex 1.111703 -1.099527 0.002871
      vertex 1.217523 -1.586707 20.000000
    endloop
  endfacet
  facet normal 0.659189 -0.751661 -0.021801
    outer loop
      vertex 1.414214 -1.414214 20.000000
      vertex 1.217523 -1.586707 20.000000
      vertex 1.111703 -1.099527 0.002871
    endloop
  endfacet
  facet normal 0.751661 -0.659189 -0.021801
    outer loop
      vertex 1.685680 -1.304320 19.997129
      vertex 1.198500 -1.198500 0.000000
      vertex 1.297473 -1.085547 -0.002871
    endloop
  endfacet
  facet normal 0.751661 -0.659189 -0.021801
    outer loop
      vertex 1.513187 -1.501011 19.997129
      vertex 1.198500 -1.198500 0.000000
      vertex 1.685680 -1.304320 19.997129
    endloop
  endfacet
  facet normal 0.831149 -0.555356 -0.027754
    outer loop
      vertex 1.824252 -1.061607 19.996921
      vertex 1.198500 -0.998750 0.000000
      vertex 1.290701 -0.860607 -0.003079
    endloop
  endfacet
  facet normal 0.831149 -0.555356 -0.027754
    outer loop
      vertex 1.678908 -1.279130 19.996921
      vertex 1.198500 -0.998750 0.000000
      vertex 1.824252 -1.061607 19.996921
    endloop
  endfacet
  facet normal 0.896391 -0.442051 -0.032771
    outer loop
      vertex 1.926910 -0.804400 19.997106
      vertex 1.198500 -0.799000 0.000000
      vertex 1.277651 -0.638283 -0.002894
    endloop
  endfacet
  facet normal 0.896391 -0.442051 -0.032771
    outer loop
      vertex 1.811202 -1.039033 19.997106
      vertex 1.198500 -0.799000 0.000000
      vertex 1.926910 -0.804400 19.997106
    endloop
  endfacet
  facet normal 0.946296 -0.321224 -0.036596
    outer loop
      vertex 1.992570 -0.538249 19.997652
      vertex 1.198500 -0.599250 0.000000
      vertex 1.259219 -0.420111 -0.002348
    endloop
  endfacet
  facet normal 0.946296 -0.321224 -0.036596
    outer loop
      vertex 1.908478 -0.785978 19.997652
      vertex 1.198500 -0.599250 0.000000
      vertex 1.992570 -0.538249 19.997652
    endloop
  endfacet
  facet normal 0.980038 -0.194942 -0.039034
    outer loop
      vertex 2.021052 -0.268643 19.998480
      vertex 1.198500 -0.399500 0.000000
      vertex 1.236662 -0.207341 -0.001520
    endloop
  endfacet
  facet normal 0.980038 -0.194942 -0.039034
    outer loop
      vertex 1.970014 -0.525229 19.998480
      vertex 1.198500 -0.399500 0.000000
      vertex 2.021052 -0.268643 19.998480
    endloop
  endfacet
  facet normal 0.997062 -0.065351 -0.039957
    outer loop
      vertex 2.013015 -0.000853 19.999478
      vertex 1.198500 -0.199750 0.000000
      vertex 1.211515 -0.000853 -0.000522
    endloop
  endfacet
  facet normal 0.997062 -0.065351 -0.039957
    outer loop
      vertex 1.995905 -0.261905 19.999478
      vertex 1.198500 -0.199750 0.000000
      vertex 2.013015 -0.000853 19.999478
    endloop
  endfacet
  facet normal 0.997062 0.065351 -0.039957
    outer loop
      vertex 1.198500 0.000000 0.000000
      vertex 1.185485 0.198897 0.000522
      vertex 2.000000 0.000000 20.000000
    endloop
  endfacet
  facet normal 0.997062 0.065351 -0.039957
    outer loop
      vertex 1.982890 0.261052 20.000000
      vertex 2.000000 0.000000 20.000000
      vertex 1.185485 0.198897 0.000522
    endloop
  endfacet
  facet normal 0.980038 0.194942 -0.039034
    outer loop
      vertex 1.198500 0.199750 0.000000
      vertex 1.160338 0.391909 0.001520
      vertex 1.982890 0.261052 20.000000
    endloop
  endfacet
  facet normal 0.980038 0.194942 -0.039034
    outer loop
      vertex 1.931852 0.517638 20.000000
      vertex 1.982890 0.261052 20.000000
      vertex 1.160338 0.391909 0.001520
    endloop
  endfacet
  facet normal 0.946296 0.321224 -0.036596
    outer loop
      vertex 1.198500 0.399500 0.000000
      vertex 1.137781 0.578639 0.002348
      vertex 1.931852 0.517638 20.000000
    endloop
  endfacet
  facet normal 0.946296 0.321224 -0.036596
    outer loop
      vertex 1.847759 0.765367 20.000000
      vertex 1.931852 0.517638 20.000000
      vertex 1.137781 0.578639 0.002348
    endloop
  endfacet
  facet normal 0.896391 0.442051 -0.032771
    outer loop
      vertex 1.198500 0.599250 0.000000
      vertex 1.119349 0.759967 0.002894
      vertex 1.847759 0.765367 20.000000
    endloop
  endfacet
  facet normal 0.896391 0.442051 -0.032771
    outer loop
      vertex 1.732051 1.000000 20.000000
      vertex 1.847759 0.765367 20.000000
      vertex 1.119349 0.759967 0.002894
    endloop
  endfacet
  facet normal 0.831149 0.555356 -0.027754
    outer loop
      vertex 1.198500 0.799000 0.000000
      vertex 1.106299 0.937143 0.003079
      vertex 1.732051 1.000000 20.000000
    endloop
  endfacet
  facet normal 0.831149 0.555356 -0.027754
    outer loop
      vertex 1.586707 1.217523 20.000000
      vertex 1.732051 1.000000 20.000000
      vertex 1.106299 0.937143 0.003079
    endloop
  endfacet
  facet normal 0.751661 0.659189 -0.021801
    outer loop
      vertex 1.198500 0.998750 0.000000
      vertex 1.099527 1.111703 0.002871
      vertex 1.586707 1.217523 20.000000
    endloop
  endfacet
  facet normal 0.751661 0.659189 -0.021801
    outer loop
      vertex 1.414214 1.414214 20.000000
      vertex 1.586707 1.217523 20.000000
      vertex 1.099527 1.111703 0.002871
    endloop
  endfacet
  facet normal 0.659189 0.751661 -0.021801
    outer loop
      vertex 1.304320 1.685680 19.997129
      vertex 1.198500 1.198500 0.000000
      vertex 1.085547 1.297473 -0.002871
    endloop
  endfacet
  facet normal 0.659189 0.751661 -0.021801
    outer loop
      vertex 1.501011 1.513187 19.997129
      vertex 1.198500 1.198500 0.000000
      vertex 1.304320 1.685680 19.997129
    endloop
  endfacet
  facet normal 0.555356 0.831149 -0.027754
    outer loop
      vertex 1.061607 1.824252 19.996921
      vertex 0.998750 1.198500 0.000000
      vertex 0.860607 1.290701 -0.003079
    endloop
  endfacet
  facet normal 0.555356 0.831149 -0.027754
    outer loop
      vertex 1.279130 1.678908 19.996921
      vertex 0.998750 1.198500 0.000000
      vertex 1.061607 1.824252 19.996921
    endloop
  endfacet
  facet normal 0.442051 0.896391 -0.032771
    outer loop
      vertex 0.804400 1.926910 19.997106
      vertex 0.799000 1.198500 0.000000
      vertex 0.638283 1.277651 -0.002894
    endloop
  endfacet
  facet normal 0.442051 0.896391 -0.032771
    outer loop
      vertex 1.039033 1.811202 19.997106
      vertex 0.799000 1.198500 0.000000
      vertex 0.804400 1.926910 19.997106
    endloop
  endfacet
  facet normal 0.321224 0.946296 -0.036596
    outer loop
      vertex 0.538249 1.992570 19.997652
      vertex 0.599250 1.198500 0.000000
      vertex 0.420111 1.259219 -0.002348
    endloop
  endfacet
  facet normal 0.321224 0.946296 -0.036596
    outer loop
      vertex 0.785978 1.908478 19.997652
      vertex 0.599250 1.198500 0.000000
      vertex 0.538249 1.992570 19.997652
    endloop
  endfacet
  facet normal 0.194942 0.980038 -0.039034
    outer loop
      vertex 0.268643 2.021052 19.998480
      vertex 0.399500 1.198500 0.000000
      vertex 0.207341 1.236662 -0.001520
    endloop
  endfacet
  facet normal 0.194942 0.980038 -0.039034
    outer loop
      vertex 0.525229 1.970014 19.998480
      vertex 0.399500 1.198500 0.000000
      vertex 0.268643 2.021052 19.998480
    endloop
  endfacet
  facet normal 0.065351 0.997062 -0.039957
    outer loop
      vertex 0.000853 2.013015 19.999478
      vertex 0.199750 1.198500 0.000000
      vertex 0.000853 1.211515 -0.000522
    endloop
  endfacet
  facet normal 0.065351 0.997062 -0.039957
    outer loop
      vertex 0.261905 1.995905 19.999478
      vertex 0.199750 1.198500 0.000000
      vertex 0.000853 2.013015 19.999478
    endloop
  endfacet
  facet normal -0.065351 0.997062 -0.039957
    outer loop
      vertex 0.000000 1.198500 0.000000
      vertex -0.198897 1.185485 0.000522
      vertex 0.000000 2.000000 20.000000
    endloop
  endfacet
  facet normal -0.065351 0.997062 -0.039957
    outer loop
      vertex -0.261052 1.982890 20.000000
      vertex 0.000000 2.000000 20.000000
      vertex -0.198897 1.185485 0.000522
    endloop
  endfacet
  facet normal -0.194942 0.980038 -0.039034
    outer loop
      vertex -0.199750 1.198500 0.000000
      vertex -0.391909 1.160338 0.001520
      vertex -0.261052 1.982890 20.000000
    endloop
  endfacet
  facet normal -0.194942 0.980038 -0.039034
    outer loop
      vertex -0.517638 1.931852 20.000000
      vertex -0.261052 1.982890 20.000000
      vertex -0.391909 1.160338 0.001520
    endloop
  endfacet
  facet normal -0.321224 0.946296 -0.036596
    outer loop
      vertex -0.399500 1.198500 0.000000
      vertex -0.578639 1.137781 0.002348
      vertex -0.517638 1.931852 20.000000
    endloop
  endfacet
  facet normal -0.321224 0.946296 -0.036596
    outer loop
      vertex -0.765367 1.847759 20.000000
      vertex -0.517638 1.931852 20.000000
      vertex -0.578639 1.137781 0.002348
    endloop
  endfacet
  facet normal -0.442051 0.896391 -0.032771
    outer loop
      vertex -0.599250 1.198500 0.000000
      vertex -0.759967 1.119349 0.002894
      vertex -0.765367 1.847759 20.000000
    endloop
  endfacet
  facet normal -0.442051 0.896391 -0.032771
    outer loop
      vertex -1.000000 1.732051 20.000000
      vertex -0.765367 1.847759 20.000000
      vertex -0.759967 1.119349 0.002894
    endloop
  endfacet
  facet normal -0.555356 0.831149 -0.027754
    outer loop
      vertex -0.799000 1.198500 0.000000
      vertex -0.937143 1.106299 0.003079
      vertex -1.000000 1.732051 20.000000
    endloop
  endfacet
  facet normal -0.555356 0.831149 -0.027754
    outer loop
      vertex -1.217523 1.586707 20.000000
      vertex -1.000000 1.732051 20.000000
      vertex -0.937143 1.106299 0.003079
    endloop
  endfacet
  facet normal -0.659189 0.751661 -0.021801
    outer loop
      vertex -0.998750 1.198500 0.000000
      vertex -1.111703 1.099527 0.002871
      vertex -1.217523 1.586707 20.000000
    endloop
  endfacet
  facet normal -0.659189 0.751661 -0.021801
    outer loop
      vertex -1.414214 1.414214 20.000000
      vertex -1.217523 1.586707 20.000000
      vertex -1.111703 1.099527 0.002871
    endloop
  endfacet
  facet normal -0.751661 0.659189 -0.021801
    outer loop
      vertex -1.685680 1.304320 19.997129
      vertex -1.198500 1.198500 0.000000
      vertex -1.297473 1.085547 -0.002871
    endloop
  endfacet
  facet normal -0.751661 0.659189 -0.021801
    outer loop
      vertex -1.513187 1.501011 19.997129
      vertex -1.198500 1.198500 0.000000
      vertex -1.685680 1.304320 19.997129
    endloop
  endfacet
  facet normal -0.831149 0.555356 -0.027754
    outer loop
      vertex -1.824252 1.061607 19.996921
      vertex -1.198500 0.998750 0.000000
      vertex -1.290701 0.860607 -0.003079
    endloop
  endfacet
  facet normal -0.831149 0.555356 -0.027754
    outer loop
      vertex -1.678908 1.279130 19.996921
      vertex -1.198500 0.998750 0.000000
      vertex -1.824252 1.061607 19.996921
    endloop
  endfacet
  facet normal -0.896391 0.442051 -0.032771
    outer loop
      vertex -1.926910 0.804400 19.997106
      vertex -1.198500 0.799000 0.000000
      vertex -1.277651 0.638283 -0.002894
    endloop
  endfacet
  facet normal -0.896391 0.442051 -0.032771
    outer loop
      vertex -1.811202 1.039033 19.997106
      vertex -1.198500 0.799000 0.000000
      vertex -1.926910 0.804400 19.997106
    endloop
  endfacet
  facet normal -0.946296 0.321224 -0.036596
    outer loop
      vertex -1.992570 0.538249 19.997652
      vertex -1.198500 0.599250 0.000000
      vertex -1.259219 0.420111 -0.002348
    endloop
  endfacet
  facet normal -0.946296 0.321224 -0.036596
    outer loop
      vertex -1.908478 0.785978 19.997652
      vertex -1.198500 0.599250 0.000000
      vertex -1.992570 0.538249 19.997652
    endloop
  endfacet
  facet normal -0.980038 0.194942 -0.039034
    outer loop
      vertex -2.021052 0.268643 19.998480
      vertex -1.198500 0.399500 0.000000
      vertex -1.236662 0.207341 -0.001520
    endloop
  endfacet
  facet normal -0.980038 0.194942 -0.039034
    outer loop
      vertex -1.970014 0.525229 19.998480
      vertex -1.198500 0.399500 0.000000
      vertex -2.021052 0.268643 19.998480
    endloop
  endfacet
  facet normal -0.997062 0.065351 -0.039957
    outer loop
      vertex -2.013015 0.000853 19.999478
      vertex -1.198500 0.199750 0.000000
      vertex -1.211515 0.000853 -0.000522
    endloop
  endfacet
  facet normal -0.997062 0.065351 -0.039957
    outer loop
      vertex -1.995905 0.261905 19.999478
      vertex -1.198500 0.199750 0.000000
      vertex -2.013015 0.000853 19.999478
    endloop
  endfacet
  facet normal -0.997062 -0.065351 -0.039957
    outer loop
      vertex -1.198500 0.000000 0.000000
      vertex -1.185485 -0.198897 0.000522
      vertex -2.000000 0.000000 20.000000
    endloop
  endfacet
  facet normal -0.997062 -0.065351 -0.039957
    outer loop
      vertex -1.982890 -0.261052 20.000000
      vertex -2.000000 0.000000 20.000000
      vertex -1.185485 -0.198897 0.000522
    endloop
  endfacet
  facet normal -0.980038 -0.194942 -0.039034
    outer loop
      vertex -1.198500 -0.199750 0.000000
      vertex -1.160338 -0.391909 0.001520
      vertex -1.982890 -0.261052 20.000000
    endloop
  endfacet
  facet normal -0.980038 -0.194942 -0.039034
    outer loop
      vertex -1.931852 -0.517638 20.000000
      vertex -1.982890 -0.261052 20.000000
      vertex -1.160338 -0.391909 0.001520
    endloop
  endfacet
  facet normal -0.946296 -0.321224 -0.036596
    outer loop
      vertex -1.198500 -0.399500 0.000000
      vertex -1.137781 -0.578639 0.002348
      vertex -1.931852 -0.517638 20.000000
    endloop
  endfacet
  facet normal -0.946296 -0.321224 -0.036596
    outer loop
      vertex -1.847759 -0.765367 20.000000
      vertex -1.931852 -0.517638 20.000000
      vertex -1.137781 -0.578639 0.002348
    endloop
  endfacet
  facet normal -0.896391 -0.442051 -0.032771
    outer loop
      vertex -1.198500 -0.599250 0.000000
      vertex -1.119349 -0.759967 0.002894
      vertex -1.847759 -0.765367 20.000000
    endloop
  endfacet
  facet normal -0.896391 -0.442051 -0.032771
    outer loop
      vertex -1.732051 -1.000000 20.000000
      vertex -1.847759 -0.765367 20.000000
      vertex -1.119349 -0.759967 0.002894
    endloop
  endfacet
  facet normal -0.831149 -0.555356 -0.027754
    outer loop
      vertex -1.198500 -0.799000 0.000000
      vertex -1.106299 -0.937143 0.003079
      vertex -1.732051 -1.000000 20.000000
    endloop
  endfacet
  facet normal -0.831149 -0.555356 -0.027754
    outer loop
      vertex -1.586707 -1.217523 20.000000
      vertex -1.732051 -1.000000 20.000000
      vertex -1.106299 -0.937143 0.003079
    endloop
  endfacet
  facet normal -0.751661 -0.659189 -0.021801
    outer loop
      vertex -1.198500 -0.998750 0.000000
      vertex -1.099527 -1.111703 0.002871
      vertex -1.586707 -1.217523 20.000000
    endloop
  endfacet
  facet normal -0.751661 -0.659189 -0.021801
    outer loop
      vertex -1.414214 -1.414214 20.000000
      vertex -1.586707 -1.217523 20.000000
      vertex -1.099527 -1.111703 0.002871
    endloop
  endfacet
endsolid csgrs-logfting_segments-48
